<?xml version="1.0" standalone="no"?>
<!DOCTYPE svg PUBLIC "-//W3C//DTD SVG 20010904//EN"
 "http://www.w3.org/TR/2001/REC-SVG-20010904/DTD/svg10.dtd">
<svg version="1.0" xmlns="http://www.w3.org/2000/svg"
 width="500.000000pt" height="500.000000pt" viewBox="0 0 500.000000 500.000000"
 preserveAspectRatio="xMidYMid meet">
<metadata>
Created by potrace 1.16, written by Peter Selinger 2001-2019
</metadata>
<g transform="translate(0.000000,500.000000) scale(0.100000,-0.100000)"
fill="#000000" stroke="none">
<path d="M1086 3860 c-225 -36 -366 -110 -366 -193 0 -161 435 -261 837 -191
230 39 360 143 298 238 -33 50 -141 102 -274 132 -80 18 -410 27 -495 14z
m507 -109 c81 -21 178 -67 184 -87 6 -19 -113 -74 -209 -96 -125 -29 -402 -32
-525 -5 -97 21 -178 50 -213 78 l-25 19 30 25 c35 29 127 62 228 81 113 21
429 13 530 -15z"/>
<path d="M688 3428 c-21 -6 -38 -14 -38 -18 0 -5 16 -4 36 2 75 20 214 -18
362 -100 193 -106 287 -125 423 -82 249 76 381 64 439 -40 21 -39 24 -57 23
-130 -1 -48 -10 -118 -22 -161 -25 -97 -116 -327 -192 -488 -33 -68 -59 -126
-59 -128 0 -1 15 -3 33 -3 31 0 39 7 89 78 249 346 375 697 313 873 -20 57
-65 102 -129 131 -43 20 -66 23 -156 22 -95 -1 -115 -4 -210 -38 -209 -75
-221 -78 -295 -74 -62 3 -85 11 -205 70 -74 36 -159 73 -189 82 -60 18 -165
19 -223 4z"/>
<path d="M604 3358 c-63 -43 -106 -100 -129 -173 -15 -50 -17 -80 -12 -214 3
-86 13 -196 22 -246 54 -306 272 -856 375 -949 74 -67 95 -51 191 150 115 239
249 413 371 482 73 41 179 81 252 96 42 9 62 18 64 29 5 22 -17 22 -128 -3
-106 -24 -235 -70 -296 -105 -54 -32 -219 -193 -263 -258 -18 -26 -46 -75 -63
-110 -40 -82 -75 -127 -98 -127 -47 0 -139 165 -194 350 -64 214 -88 344 -94
491 -7 210 18 319 92 392 103 103 235 106 470 11 37 -15 6 14 -66 62 -152 100
-289 154 -389 154 -47 0 -65 -5 -105 -32z"/>
<path d="M4240 2185 c0 -43 -1 -45 -25 -39 -52 13 -96 -45 -75 -100 13 -36 39
-46 103 -39 l57 6 0 108 0 109 -30 0 c-29 0 -30 -2 -30 -45z"/>
<path d="M1324 2211 c-67 -29 -84 -118 -35 -173 25 -28 36 -33 76 -33 41 0 51
4 78 35 l31 35 -33 3 c-20 2 -40 -3 -51 -13 -21 -19 -52 -8 -70 25 -22 42 30
91 69 64 11 -8 36 -14 53 -12 l32 3 -29 33 c-32 35 -83 49 -121 33z"/>
<path d="M2325 2198 c-10 -30 -35 -181 -30 -188 2 -4 16 -5 29 -3 21 4 26 13
34 57 l8 51 14 -45 c17 -56 29 -71 56 -64 16 4 25 20 35 62 l14 57 10 -60 c10
-55 13 -60 38 -63 33 -4 33 0 10 120 l-17 88 -32 0 c-32 0 -34 -2 -50 -62
l-18 -62 -16 60 c-15 55 -19 59 -48 62 -20 2 -34 -2 -37 -10z"/>
<path d="M3223 2110 c-23 -55 -38 -102 -33 -105 13 -8 57 12 63 29 7 16 44 21
63 8 6 -4 13 -15 17 -24 6 -17 57 -26 57 -10 0 4 -16 51 -37 105 -34 87 -40
97 -63 97 -23 0 -30 -10 -67 -100z"/>
<path d="M1678 2143 l-38 -4 0 -65 c0 -65 0 -65 43 -68 7 -1 14 16 17 43 7 61
30 67 30 8 0 -43 10 -57 41 -57 5 0 9 27 9 59 0 63 -16 93 -48 89 -9 -1 -34
-3 -54 -5z"/>
<path d="M1919 2135 c-54 -30 -43 -111 17 -128 38 -11 87 9 92 36 3 16 -2 18
-39 15 -35 -2 -44 0 -47 15 -4 19 30 37 36 19 2 -7 15 -12 28 -12 17 0 24 6
24 19 0 39 -67 61 -111 36z"/>
<path d="M2070 2132 c-18 -14 -24 -29 -24 -57 0 -55 28 -74 102 -70 l57 4 3
65 3 66 -29 0 c-16 0 -43 3 -59 6 -20 4 -36 0 -53 -14z"/>
<path d="M2605 2138 c-28 -16 -35 -28 -35 -65 0 -46 33 -77 72 -69 17 3 43 6
59 6 29 0 29 0 29 65 l0 65 -32 0 c-18 0 -42 2 -53 5 -11 3 -29 0 -40 -7z"/>
<path d="M2966 2127 c-15 -15 -26 -38 -26 -52 0 -14 11 -37 26 -52 20 -20 32
-24 56 -19 17 3 41 6 54 6 23 0 24 3 24 65 0 62 -1 65 -24 65 -13 0 -37 3 -54
6 -24 5 -36 1 -56 -19z"/>
<path d="M3984 2136 c-41 -29 -38 -102 4 -125 10 -5 44 -7 75 -4 l57 6 0 63
c0 64 0 64 -29 64 -16 0 -41 2 -57 6 -18 3 -37 -1 -50 -10z"/>
<path d="M4359 2139 c-36 -13 -56 -61 -41 -95 23 -48 106 -55 137 -11 44 63
-21 134 -96 106z"/>
<path d="M4624 2136 c-41 -29 -38 -102 4 -125 10 -5 44 -7 75 -4 l57 6 0 63
c0 64 0 64 -29 64 -16 0 -41 2 -57 6 -18 3 -37 -1 -50 -10z"/>
<path d="M3400 2087 c0 -75 13 -84 117 -82 50 1 88 7 98 15 13 10 18 10 33 -1
14 -12 57 -16 110 -10 8 1 12 21 12 66 0 63 -1 65 -25 65 -24 0 -25 -3 -25
-62 l0 -63 -26 27 c-27 27 -27 35 2 76 16 21 16 22 -13 22 -16 0 -34 -5 -41
-12 -9 -9 -15 -9 -24 0 -7 7 -25 12 -41 12 -29 0 -29 -1 -13 -22 29 -41 29
-49 2 -76 l-26 -27 0 63 c0 59 -1 62 -24 62 -22 0 -25 -5 -28 -42 -2 -30 -8
-43 -18 -43 -10 0 -16 13 -18 43 -3 37 -6 42 -28 42 -22 0 -24 -3 -24 -53z"/>
<path d="M1274 1945 c-4 -8 -4 -22 0 -30 5 -13 195 -15 1625 -15 1486 0 1619
1 1625 16 18 46 82 44 -1631 44 -1425 0 -1614 -2 -1619 -15z"/>
<path d="M2535 1796 c-22 -34 -15 -75 17 -99 68 -51 143 46 82 107 -25 25 -81
20 -99 -8z"/>
<path d="M2826 1805 c-50 -51 -2 -141 65 -120 49 16 67 86 31 118 -23 21 -76
22 -96 2z"/>
<path d="M3190 1800 c-27 -27 -25 -66 5 -95 30 -30 54 -31 89 -4 50 40 21 119
-44 119 -17 0 -39 -9 -50 -20z"/>
<path d="M3430 1800 c-27 -27 -25 -66 5 -95 30 -30 54 -31 89 -4 50 40 21 119
-44 119 -17 0 -39 -9 -50 -20z"/>
</g>
</svg>
